{"title":"Adbuction[2011][Eng][BRRip]XviD-{RedDragon}","uid":6916796,"size":733304503,"categoryP":"video","categoryS":"movies","magnet":"?xt=urn:btih:159a93248d83c10b1773574b45d7cfdda1f4eaf1&amp;dn=Adbuction%5B2011%5D%5BEng%5D%5BBRRip%5DXviD-%7BRedDragon%7D&amp;tr=udp%3A%2F%2Ftracker.openbittorrent.com%3A80&amp;tr=udp%3A%2F%2Fopen.demonii.com%3A1337&amp;tr=udp%3A%2F%2Ftracker.coppersurfer.tk%3A6969&amp;tr=udp%3A%2F%2Fexodus.desync.com%3A6969","seeders":0,"leechers":1,"uploader":"RedDr4gon","files":6,"time":1325061521,"description":"General\n\nComplete name                    : Adbuction.[2011].[Eng].[BRRip].XviD-{RedDragon} .avi\nFormat                           : AVI\nFormat/Info                      : Audio Video Interleave\nFile size                        : 699 MiB\nDuration                         : 1h 45mn\nOverall bit rate                 : 922 Kbps\nWriting library                  : VirtualDub build 32842/release\n\nVideo\n\nID                               : 0\nFormat                           : MPEG-4 Visual\nFormat profile                   : Advanced Simple@L5\nFormat settings, BVOP            : Yes\nFormat settings, QPel            : No\nFormat settings, GMC             : No warppoints\nFormat settings, Matrix          : Default (H.263)\nMuxing mode                      : Packed bitstream\nCodec ID                         : XVID\nCodec ID/Hint                    : XviD\nDuration                         : 1h 45mn\nBit rate                         : 785 Kbps\nWidth                            : 640 pixels\nHeight                           : 272 pixels\nDisplay aspect ratio             : 2.35:1\nFrame rate                       : 23.976 fps\nColor space                      : YUV\nChroma subsampling               : 4:2:0\nBit depth                        : 8 bits\nScan type                        : Progressive\nBits/(Pixel*Frame)               : 0.188\nStream size                      : 595 MiB (85%)\nWriting library                  : XviD 64\n\nAudio\n\nID                               : 1\nFormat                           : MPEG Audio\nFormat version                   : Version 1\nFormat profile                   : Layer 3\nMode                             : Joint stereo\nMode extension                   : MS Stereo\nCodec ID                         : 55\nCodec ID/Hint                    : MP3\nDuration                         : 1h 45mn\nBit rate mode                    : Constant\nBit rate                         : 128 Kbps\nChannel(s)                       : 2 channels\nSampling rate                    : 48.0 KHz\nStream size                      : 97.0 MiB (14%)\nAlignment                        : Split accross interleaves\nInterleave, duration             : 42 ms (1.00 video frame)\nInterleave, preload duration     : 500 ms\n \n\nFORUMS. \n \nPlease Join my Forums :\n\n &lt;a href=&quot;\nhttp://discussionforums.freeforhosting.com/&quot; rel=&quot;nofollow&quot; target=&quot;_NEW&quot;&gt;\nhttp://discussionforums.freeforhosting.com/&lt;/a&gt;    --&gt; Discurssion Forum.","torrent":{"xt":"urn:btih:159a93248d83c10b1773574b45d7cfdda1f4eaf1","amp;dn":"Adbuction%5B2011%5D%5BEng%5D%5BBRRip%5DXviD-%7BRedDragon%7D","amp;tr":["udp%3A%2F%2Ftracker.openbittorrent.com%3A80","udp%3A%2F%2Fopen.demonii.com%3A1337","udp%3A%2F%2Ftracker.coppersurfer.tk%3A6969","udp%3A%2F%2Fexodus.desync.com%3A6969"],"infoHash":"159a93248d83c10b1773574b45d7cfdda1f4eaf1","infoHashBuffer":{"type":"Buffer","data":[21,154,147,36,141,131,193,11,23,115,87,75,69,215,207,221,161,244,234,241]},"announce":[],"urlList":[]}}